<svg width="40" height="40" viewBox="0 0 40 40" fill="none" xmlns="http://www.w3.org/2000/svg">
<g clip-path="url(#clip0_3_2)">
<path d="M20.102 8.60449C23.4572 8.60449 26.1662 11.2861 26.1664 14.5801C26.1664 17.8742 23.4573 20.5566 20.102 20.5566C16.7467 20.5564 14.0385 17.8741 14.0385 14.5801C14.0387 11.2863 16.7469 8.60472 20.102 8.60449Z" fill="#00DFA2" stroke="#00DFA2"/>
<path d="M15.832 22.5479C15.9657 22.6127 16.159 22.701 16.4014 22.7988C16.8852 22.9941 17.5718 23.2287 18.3848 23.3857C19.9563 23.6892 22.0374 23.7057 24.0361 22.5518C24.068 22.5616 24.1041 22.572 24.1436 22.585C24.3384 22.649 24.623 22.7532 24.9717 22.9092C25.6696 23.2214 26.6202 23.7421 27.6162 24.5713C29.5686 26.1968 31.7208 29.0292 32.4688 33.8789C32.449 33.9 32.4279 33.9235 32.4043 33.9482C32.2565 34.1029 32.0348 34.3265 31.7432 34.5957C31.1593 35.1346 30.2981 35.8555 29.1953 36.5762C26.9871 38.0191 23.8301 39.4494 19.9951 39.4492H19.9541L19.9131 39.4561C19.9117 39.4563 19.9094 39.4566 19.9062 39.457C19.898 39.4582 19.8837 39.4605 19.8643 39.4629C19.8254 39.4677 19.7644 39.4741 19.6826 39.4805C19.5187 39.4931 19.271 39.5047 18.9502 39.498C18.3083 39.4846 17.3718 39.3978 16.2217 39.1016C13.9599 38.5189 10.8524 37.1189 7.50781 33.8359C7.51014 33.7922 7.51259 33.742 7.5166 33.6855C7.53353 33.4475 7.56724 33.0997 7.63477 32.6719C7.77005 31.8148 8.04051 30.6402 8.57617 29.374C9.62728 26.8897 11.7001 24.0526 15.8242 22.5439C15.8268 22.5452 15.8294 22.5466 15.832 22.5479Z" fill="#00DFA2" stroke="#00DFA2"/>
<path d="M20 39C30.4934 39 39 30.4934 39 20C39 9.50659 30.4934 1 20 1C9.50659 1 1 9.50659 1 20C1 30.4934 9.50659 39 20 39Z" stroke="#00DFA2" stroke-width="2"/>
</g>
<defs>
<clipPath id="clip0_3_2">
<rect width="40" height="40" fill="white"/>
</clipPath>
</defs>
</svg>
